<svg width="70" height="70" viewBox="0 0 70 70" fill="none" xmlns="http://www.w3.org/2000/svg">
<path fill-rule="evenodd" clip-rule="evenodd" d="M48 22H43C42.2044 22 41.4413 21.6839 40.8787 21.1213C40.3161 20.5587 40 19.7956 40 19C40 18.2044 40.3161 17.4413 40.8787 16.8787C41.4413 16.3161 42.2044 16 43 16H49C50.3261 16 51.5979 16.5268 52.5355 17.4645C53.4732 18.4021 54 19.6739 54 21V27C54 27.7956 53.6839 28.5587 53.1213 29.1213C52.5587 29.6839 51.7957 30 51 30C50.2043 30 49.4413 29.6839 48.8787 29.1213C48.3161 28.5587 48 27.7956 48 27V22ZM27 22H22V27C22 27.7956 21.6839 28.5587 21.1213 29.1213C20.5587 29.6839 19.7956 30 19 30C18.2044 30 17.4413 29.6839 16.8787 29.1213C16.3161 28.5587 16 27.7956 16 27V21C16 19.6739 16.5268 18.4021 17.4645 17.4645C18.4021 16.5268 19.6739 16 21 16H27C27.7956 16 28.5587 16.3161 29.1213 16.8787C29.6839 17.4413 30 18.2044 30 19C30 19.7956 29.6839 20.5587 29.1213 21.1213C28.5587 21.6839 27.7956 22 27 22ZM27 48H22V43C22 42.2044 21.6839 41.4413 21.1213 40.8787C20.5587 40.3161 19.7956 40 19 40C18.2044 40 17.4413 40.3161 16.8787 40.8787C16.3161 41.4413 16 42.2044 16 43V49C16 50.3261 16.5268 51.5979 17.4645 52.5355C18.4021 53.4732 19.6739 54 21 54H27C27.7956 54 28.5587 53.6839 29.1213 53.1213C29.6839 52.5587 30 51.7957 30 51C30 50.2043 29.6839 49.4413 29.1213 48.8787C28.5587 48.3161 27.7956 48 27 48ZM43 48H48V43C48 42.2044 48.3161 41.4413 48.8787 40.8787C49.4413 40.3161 50.2043 40 51 40C51.7957 40 52.5587 40.3161 53.1213 40.8787C53.6839 41.4413 54 42.2044 54 43V49C54 50.3261 53.4732 51.5979 52.5355 52.5355C51.5979 53.4732 50.3261 54 49 54H43C42.2044 54 41.4413 53.6839 40.8787 53.1213C40.3161 52.5587 40 51.7957 40 51C40 50.2043 40.3161 49.4413 40.8787 48.8787C41.4413 48.3161 42.2044 48 43 48Z" fill="#FFF8E5"/>
</svg>
